<svg width="19" height="19" viewBox="0 0 19 19" fill="none" xmlns="http://www.w3.org/2000/svg">
<g opacity="0.7">
<path d="M13.0625 7.44078L5.9375 3.33203" stroke="#516F8B" stroke-width="1.5" stroke-linecap="round" stroke-linejoin="round"/>
<path d="M16.625 12.6657V6.33236C16.6247 6.0547 16.5514 5.782 16.4125 5.54161C16.2735 5.30123 16.0738 5.10161 15.8333 4.96278L10.2917 1.79611C10.051 1.65714 9.77793 1.58398 9.5 1.58398C9.22207 1.58398 8.94903 1.65714 8.70833 1.79611L3.16667 4.96278C2.92621 5.10161 2.72648 5.30123 2.58753 5.54161C2.44858 5.782 2.37528 6.0547 2.375 6.33236V12.6657C2.37528 12.9434 2.44858 13.2161 2.58753 13.4564C2.72648 13.6968 2.92621 13.8964 3.16667 14.0353L8.70833 17.2019C8.94903 17.3409 9.22207 17.4141 9.5 17.4141C9.77793 17.4141 10.051 17.3409 10.2917 17.2019L15.8333 14.0353C16.0738 13.8964 16.2735 13.6968 16.4125 13.4564C16.5514 13.2161 16.6247 12.9434 16.625 12.6657Z" stroke="#516F8B" stroke-width="1.5" stroke-linecap="round" stroke-linejoin="round"/>
<path d="M2.58887 5.50977L9.50012 9.50768L16.4114 5.50977" stroke="#516F8B" stroke-width="1.5" stroke-linecap="round" stroke-linejoin="round"/>
<path d="M9.5 17.48V9.5" stroke="#516F8B" stroke-width="1.5" stroke-linecap="round" stroke-linejoin="round"/>
</g>
</svg>
