<svg width="22" height="24" viewBox="0 0 22 24" fill="none" xmlns="http://www.w3.org/2000/svg">
<path d="M14.2015 23.6289C13.6316 23.2711 13.0617 22.9133 12.4917 22.5556C11.9625 22.2285 11.8913 21.9422 12.1762 21.4107C12.4409 20.92 12.7156 20.4293 13.0006 19.9489C13.2856 19.448 13.6112 19.3049 13.9776 19.4889C14.344 19.6831 14.4152 20.0409 14.1812 20.552C14.1608 20.6031 14.1405 20.6645 14.0794 20.7973C15.2091 20.4293 16.1352 19.8569 16.9697 19.1311C19.0459 17.3116 20.1654 14.9809 20.1857 12.2311C20.2264 7.58002 17.0104 3.94091 12.8479 3.07202C12.736 3.05157 12.6139 3.02091 12.5019 2.99024C12.1355 2.8778 11.9829 2.62224 12.0338 2.25424C12.0948 1.87602 12.3594 1.64091 12.7156 1.73291C13.5807 1.94757 14.4865 2.11113 15.2803 2.48935C19.3003 4.42135 21.4172 7.68224 21.4986 12.1494C21.5698 16.4325 18.9034 20.2862 14.9546 21.9014C14.802 21.9627 14.6391 22.0342 14.517 22.0854C14.7104 22.3409 15.0361 22.576 15.0666 22.852C15.0869 23.0871 14.7918 23.3631 14.629 23.6187C14.4763 23.6289 14.344 23.6289 14.2015 23.6289Z" fill="#3773A9"/>
<path d="M7.78985 0.628906C8.35978 0.986684 8.9297 1.34446 9.49963 1.70224C10.0187 2.02935 10.1001 2.31557 9.81512 2.84713C9.55051 3.3378 9.27573 3.82846 8.99077 4.30891C8.7058 4.79957 8.38013 4.95291 8.01375 4.75868C7.64737 4.56446 7.57613 4.20668 7.8102 3.69557C7.83056 3.64446 7.86109 3.58313 7.92215 3.44002C6.76195 3.83868 5.82564 4.41113 4.99111 5.15735C2.95566 6.96668 1.85651 9.25646 1.8158 11.9756C1.75474 16.596 4.93004 20.2965 9.1536 21.1858C9.38768 21.2369 9.68282 21.3187 9.81512 21.4925C9.93725 21.656 9.97796 22.0036 9.87619 22.1876C9.78459 22.3613 9.44874 22.5556 9.27573 22.5147C8.4819 22.3511 7.66772 22.1978 6.94514 21.8707C3.16938 20.1534 0.98127 17.2298 0.553825 13.0591C0.05514 8.19335 3.07778 3.80802 7.29116 2.24402C7.37258 2.21335 7.44382 2.17246 7.49471 2.15202C7.30134 1.89646 6.97567 1.66135 6.94514 1.38535C6.91461 1.16046 7.21992 0.884462 7.38276 0.628906C7.51506 0.628906 7.65755 0.628906 7.78985 0.628906Z" fill="#3773A9"/>
<path d="M10.9957 18.0271C9.92707 18.0271 8.85846 18.0271 7.78985 18.0271C6.59911 18.0169 5.85617 17.2707 5.85617 16.0849C5.85617 14.7254 5.85617 13.3658 5.85617 11.996C5.85617 11.3929 6.04954 10.8716 6.53805 10.5342C6.83319 10.3298 6.88407 10.0947 6.88407 9.76757C6.89425 7.73335 8.31907 5.97513 10.212 5.63779C12.7767 5.17779 15.0768 7.07913 15.1073 9.71646C15.1073 10.0742 15.1785 10.3298 15.494 10.5649C15.9418 10.892 16.1352 11.3827 16.1352 11.9449C16.1352 13.3556 16.1454 14.7662 16.1352 16.1871C16.125 17.24 15.3617 18.0067 14.3033 18.0271C13.2041 18.0373 12.105 18.0271 10.9957 18.0271ZM13.7843 10.0845C13.8148 8.87824 13.4382 7.92757 12.4205 7.31424C11.4333 6.72135 10.4156 6.74179 9.45892 7.38579C8.52261 8.00935 8.15623 8.93957 8.20712 10.0845C10.0797 10.0845 11.8913 10.0845 13.7843 10.0845ZM11.6572 14.0711C11.6674 14.0711 11.6674 14.0711 11.6572 14.0711C11.6572 13.9382 11.6674 13.7951 11.6572 13.6622C11.6369 13.2431 11.3417 12.9058 10.9855 12.916C10.6293 12.916 10.3342 13.2533 10.324 13.6725C10.3138 13.9791 10.3138 14.2858 10.324 14.5925C10.3545 15.0014 10.6191 15.2262 10.9855 15.2262C11.3519 15.2262 11.6165 14.9911 11.647 14.5925C11.6674 14.4085 11.6572 14.2449 11.6572 14.0711Z" fill="#3773A9"/>
</svg>
