<svg viewBox="0 0 340 340" xmlns="http://www.w3.org/2000/svg"><path d="m308.512 102.94h-36.172a4 4 0 0 0 0 8h36.172a16.13 16.13 0 0 1 16.112 16.112v125.283a16.13 16.13 0 0 1 -16.112 16.111h-28.576a4 4 0 0 0 -3.876 4.987l8.173 32.111-61.359-36.534a4 4 0 0 0 -2.047-.564h-75.37a16.129 16.129 0 0 1 -16.112-16.111v-41.9a4 4 0 0 0 -8 0v41.9a24.138 24.138 0 0 0 24.112 24.111h74.27l68.722 40.918a4 4 0 0 0 5.922-4.423l-9.29-36.495h23.431a24.138 24.138 0 0 0 24.112-24.111v-125.283a24.139 24.139 0 0 0 -24.112-24.112z"/><path d="m31.487 195.579h23.431l-9.289 36.5a4 4 0 0 0 5.923 4.423l68.721-40.918h111.917a24.139 24.139 0 0 0 24.11-24.117v-125.282a24.14 24.14 0 0 0 -24.11-24.113h-200.703a24.139 24.139 0 0 0 -24.111 24.113v125.282a24.138 24.138 0 0 0 24.111 24.112zm-16.111-149.394a16.13 16.13 0 0 1 16.111-16.113h200.7a16.131 16.131 0 0 1 16.113 16.113v125.282a16.13 16.13 0 0 1 -16.113 16.112h-113.014a3.987 3.987 0 0 0 -2.047.564l-61.359 36.534 8.172-32.112a4 4 0 0 0 -3.876-4.986h-28.576a16.13 16.13 0 0 1 -16.111-16.112z"/><circle cx="134.965" cy="109.552" r="4"/><circle cx="99.51" cy="109.552" r="4"/><circle cx="170.42" cy="109.552" r="4"/></svg>