<svg width="21" height="21" viewBox="0 0 21 21" fill="none" xmlns="http://www.w3.org/2000/svg">
<g clip-path="url(#clip0_833_10670)">
<path d="M6.12494 20.405C5.14608 20.405 4.17732 20.4352 3.19846 20.3949C1.53339 20.3343 0.382985 19.4059 0.11052 17.7611C-0.252767 15.5208 0.251798 13.5126 2.03796 11.9787C3.00672 11.1512 4.18741 10.788 5.43873 10.7779C7.41662 10.7476 9.40461 10.7476 11.3825 10.8384C12.5127 10.8889 13.4916 11.4641 14.3493 12.2108C14.6723 12.4833 14.5714 12.7053 14.309 12.9576C12.9971 14.2594 11.7155 15.5914 10.3936 16.8831C9.88899 17.3776 9.62662 17.9225 9.68717 18.6289C9.71744 19.0426 9.68717 19.4665 9.69726 19.8903C9.70735 20.2738 9.54589 20.4352 9.15233 20.4252C8.1432 20.405 7.13407 20.4151 6.12494 20.4151C6.12494 20.4151 6.12494 20.4151 6.12494 20.405Z" fill="#3773A9"/>
<path d="M12.3618 4.2888C12.3618 6.68044 10.4646 8.5877 8.08307 8.59779C5.72171 8.60788 3.764 6.67035 3.75391 4.32917C3.75391 1.91735 5.68134 0 8.08307 0C10.4747 0 12.3618 1.89716 12.3618 4.2888Z" fill="#3773A9"/>
<path d="M11.3023 20.9903C11.3023 20.1023 11.2922 19.2748 11.3124 18.4574C11.3124 18.3363 11.3831 18.1951 11.4638 18.1042C13.0178 16.5502 14.5719 14.9961 16.0957 13.4824C16.9837 14.3705 17.8718 15.2585 18.78 16.1667C18.7396 16.2071 18.669 16.308 18.5681 16.3988C17.1351 17.8217 15.7122 19.2446 14.2692 20.6472C14.0875 20.8188 13.7848 20.9399 13.5325 20.9601C12.8261 21.0105 12.1096 20.9903 11.3023 20.9903Z" fill="#3773A9"/>
<path d="M19.7087 15.3289C18.7702 14.3904 17.8923 13.5024 16.9336 12.5538C17.2767 12.2309 17.64 11.8575 18.0335 11.5245C18.4271 11.1915 19.0124 11.2016 19.406 11.5648C19.85 11.9786 20.2738 12.4024 20.6876 12.8464C21.0811 13.2703 21.0811 13.8152 20.7077 14.2592C20.3848 14.6427 20.0316 14.9959 19.7087 15.3289Z" fill="#3773A9"/>
</g>
<defs>
<clipPath id="clip0_833_10670">
<rect width="20.9899" height="21" fill="white"/>
</clipPath>
</defs>
</svg>
