<svg width="12" height="12" viewBox="0 0 12 12" fill="none" xmlns="http://www.w3.org/2000/svg">
<g clip-path="url(#clip0_833_10725)">
<path d="M7.18052 2.08984C7.9978 2.90777 8.80615 3.71228 9.6681 4.5749C9.60557 4.61065 9.52072 4.64194 9.46266 4.70005C7.46634 6.69345 5.47449 8.69133 3.47371 10.6803C3.36206 10.792 3.19682 10.8814 3.04051 10.9216C2.20089 11.1451 1.35681 11.3462 0.5172 11.5563C0.213509 11.6323 0.0839946 11.4982 0.159917 11.1853C0.374287 10.3227 0.58419 9.45562 0.803026 8.593C0.825356 8.49467 0.874482 8.39187 0.945939 8.32483C3.00031 6.26438 5.05469 4.20393 7.11353 2.14795C7.13586 2.12113 7.16265 2.10772 7.18052 2.08984Z" fill="white"/>
<path d="M7.93555 1.38492C8.23924 1.06311 8.53399 0.714492 8.86895 0.415034C9.26642 0.0619418 9.94526 0.0530027 10.3561 0.397156C10.7 0.687675 11.026 1.01395 11.3163 1.3581C11.6691 1.77824 11.6513 2.42632 11.2985 2.84199C11.0752 3.10569 10.8117 3.34257 10.5705 3.59286C10.499 3.66885 10.441 3.75824 10.3829 3.83422C9.53439 2.98501 8.72603 2.17156 7.93555 1.38492Z" fill="white"/>
</g>
<defs>
<clipPath id="clip0_833_10725">
<rect width="11.4286" height="11.4286" fill="white" transform="translate(0.142578 0.142578)"/>
</clipPath>
</defs>
</svg>
