<svg width="77" height="77" viewBox="0 0 77 77" fill="none" xmlns="http://www.w3.org/2000/svg">
  <rect x="0.542969" y="0.400391" width="75.7143" height="75.7143" rx="15.1429" fill="#5e9cd3"/>
  <path d="M62.4776 41.7773L61.9512 44.0579C61.4565 46.1959 59.2855 47.5865 56.8789 47.3079L52.0855 46.7516C49.9989 46.5087 48.2541 45.0632 47.7729 43.1791L46.4363 37.9311C44.265 37.0289 41.8574 36.5826 39.2145 36.5905C36.6695 36.5787 34.1478 37.0483 31.7987 37.9714L30.7467 42.8289C30.3467 44.6677 28.6877 46.0077 26.6336 46.1497L21.8451 46.4861C19.4545 46.6526 17.2103 45.1669 16.5923 43.0104L15.929 40.7004C15.2701 38.4 15.9811 36.0122 17.7975 34.4359C22.0859 30.7093 29.1074 28.9636 38.8666 29.1916C48.6404 29.4205 55.7774 31.507 60.2688 35.4487C62.1592 37.107 63.0009 39.5141 62.4776 41.7773Z" fill="white"/>
</svg>
