<svg width="75" height="76" viewBox="0 0 75 76" fill="none" xmlns="http://www.w3.org/2000/svg">
<g filter="url(#filter0_b_833_15412)">
<circle cx="37.475" cy="38.388" r="37.475" fill="black" fill-opacity="0.52"/>
</g>
<path d="M40.229 27.8665C40.2286 27.6167 40.1578 27.3721 40.0247 27.1608C39.8915 26.9495 39.7015 26.78 39.4763 26.6719C39.2512 26.5637 39.0001 26.5213 38.7519 26.5495C38.5037 26.5777 38.2685 26.6753 38.0734 26.8311L31.8003 31.8485H25.6281C25.2761 31.8485 24.9385 31.9884 24.6896 32.2373C24.4406 32.4862 24.3008 32.8238 24.3008 33.1759V43.7947C24.3008 44.1467 24.4406 44.4843 24.6896 44.7333C24.9385 44.9822 25.2761 45.122 25.6281 45.122H31.8003L38.0734 50.1394C38.2685 50.2953 38.5037 50.3929 38.7519 50.4211C39.0001 50.4492 39.2512 50.4068 39.4763 50.2987C39.7015 50.1906 39.8915 50.0211 40.0247 49.8098C40.1578 49.5985 40.2286 49.3539 40.229 49.1041V27.8665ZM48.2595 38.4853C48.2615 40.0544 47.9535 41.6084 47.353 43.0581C46.7525 44.5077 45.8715 45.8244 44.7606 46.9325L42.8837 45.0557C43.7478 44.1938 44.433 43.1696 44.8999 42.042C45.3669 40.9145 45.6064 39.7057 45.6048 38.4853C45.6063 37.2649 45.3667 36.0562 44.8997 34.9286C44.4328 33.8011 43.7476 32.7769 42.8837 31.9149L44.7606 30.038C45.8715 31.1461 46.7525 32.4628 47.353 33.9125C47.9535 35.3622 48.2615 36.9162 48.2595 38.4853Z" fill="#F8000F"/>
<defs>
<filter id="filter0_b_833_15412" x="-62.4583" y="-61.5452" width="199.866" height="199.867" filterUnits="userSpaceOnUse" color-interpolation-filters="sRGB">
<feFlood flood-opacity="0" result="BackgroundImageFix"/>
<feGaussianBlur in="BackgroundImageFix" stdDeviation="31.2291"/>
<feComposite in2="SourceAlpha" operator="in" result="effect1_backgroundBlur_833_15412"/>
<feBlend mode="normal" in="SourceGraphic" in2="effect1_backgroundBlur_833_15412" result="shape"/>
</filter>
</defs>
</svg>
