<svg width="17" height="22" viewBox="0 0 17 22" fill="none" xmlns="http://www.w3.org/2000/svg">
<g clip-path="url(#clip0_833_10691)">
<path d="M11.3391 0.0257712C11.3391 0.180398 11.3391 0.335025 11.3391 0.489652C11.3391 1.88989 11.3391 3.29871 11.3391 4.69895C11.3391 5.38618 11.5481 5.58376 12.2535 5.58376C13.6644 5.58376 15.0752 5.58376 16.4774 5.58376C16.6341 5.58376 16.7909 5.58376 16.9999 5.58376C16.9999 5.75556 16.9999 5.9016 16.9999 6.03905C16.9999 10.4889 16.9999 14.9473 16.9999 19.3971C16.9999 20.7802 16.2858 21.6993 15.0317 21.9485C14.8314 21.9914 14.6311 21.9914 14.4221 21.9914C10.4682 21.9914 6.52298 21.9914 2.56909 21.9914C1.01017 21.9914 0.00863786 21.0293 -7.11516e-05 19.483C-0.0174892 17.7048 -7.11516e-05 15.9352 -7.11516e-05 14.157C-7.11516e-05 10.3085 -7.11516e-05 6.45139 -7.11516e-05 2.60289C-7.11516e-05 1.21984 0.705359 0.300664 1.95946 0.042952C2.09009 0.0171808 2.22073 0 2.35136 0C5.26017 0 8.16028 0 11.0691 0C11.1388 0 11.2084 0.00859039 11.3391 0.0257712ZM13.5163 11.5799C13.5163 10.8668 13.525 10.1453 13.5163 9.43225C13.5076 8.93401 13.2899 8.70207 12.8196 8.6763C11.9487 8.62476 11.3042 8.2296 10.9123 7.45646C10.7294 7.08708 10.4595 6.94104 10.0501 6.94963C9.0486 6.96681 8.04706 6.9754 7.04552 6.94963C6.55782 6.93245 6.27042 7.11285 6.0527 7.54237C5.68692 8.24678 5.06858 8.60758 4.27606 8.6763C3.70126 8.72784 3.50095 8.90824 3.50095 9.4838C3.49224 10.6693 3.47483 11.8633 3.50095 13.0488C3.57063 15.961 5.32985 18.3834 8.02964 19.2854C8.31704 19.3799 8.70024 19.3885 8.98763 19.2854C11.0168 18.5724 12.4016 17.1894 13.1505 15.1878C13.5773 14.0109 13.5076 12.7997 13.5163 11.5799Z" fill="#3773A9"/>
<path d="M12.6719 4.25948C12.6719 2.99669 12.6719 1.7425 12.6719 0.53125C13.9347 1.77686 15.1975 3.02246 16.4516 4.25948C15.2497 4.25948 13.9869 4.25948 12.6719 4.25948Z" fill="#3773A9"/>
<path d="M4.80706 9.92255C5.78247 9.69061 6.54886 9.19237 7.09753 8.37628C7.14979 8.29897 7.31526 8.25601 7.42847 8.25601C8.15132 8.24742 8.88288 8.23883 9.60573 8.25601C9.73636 8.25601 9.91054 8.35051 9.98022 8.45359C10.4766 9.14941 11.1385 9.6047 11.9485 9.85383C12.053 9.88819 12.201 10.0256 12.201 10.1115C12.1749 11.4516 12.262 12.8175 12.053 14.1318C11.7569 15.9616 10.5811 17.2244 8.84804 17.9546C8.64774 18.0405 8.35163 18.0319 8.16003 17.946C6.06116 17.0182 4.92899 15.4118 4.82448 13.1439C4.76351 12.0787 4.80706 11.0135 4.80706 9.92255ZM7.86392 13.5133C7.59395 13.2384 7.36751 12.9807 7.11495 12.7488C6.81013 12.4739 6.44435 12.4739 6.18308 12.7316C5.92181 12.9893 5.92181 13.3587 6.2005 13.6508C6.5837 14.0545 6.99302 14.4497 7.40235 14.8363C7.68104 15.1026 8.02069 15.1455 8.29938 14.8792C9.15286 14.0717 9.99763 13.2384 10.825 12.3966C11.095 12.1217 11.0601 11.7523 10.8076 11.5118C10.5637 11.2712 10.1979 11.2627 9.90183 11.5032C9.77991 11.6063 9.6754 11.7179 9.56218 11.8296C9.01351 12.388 8.46485 12.9292 7.86392 13.5133Z" fill="#3773A9"/>
</g>
<defs>
<clipPath id="clip0_833_10691">
<rect width="17" height="22" fill="white"/>
</clipPath>
</defs>
</svg>
