<svg width="20" height="20" viewBox="0 0 20 20" fill="none" xmlns="http://www.w3.org/2000/svg">
<g clip-path="url(#clip0_833_10682)">
<path d="M19.0472 11.8896C16.2425 10.5224 14.1565 10.7021 12.4222 12.4443C10.7034 14.1709 10.5315 16.2568 11.93 19.1162C10.6019 19.1162 9.3206 19.1709 8.03935 19.1005C6.79717 19.038 5.53935 18.9443 4.3206 18.6943C2.18779 18.2646 0.586229 16.3349 0.304979 14.1474C0.00029178 11.788 -0.0856457 9.42867 0.0940418 7.06149C0.164354 6.13961 0.250292 5.21774 0.445604 4.3193C0.906542 2.1943 2.79717 0.592736 4.96904 0.311486C7.35185 -0.00101412 9.74248 -0.0869516 12.1331 0.0927359C13.0394 0.163048 13.9534 0.248986 14.8362 0.444298C16.9065 0.897423 18.5003 2.68649 18.8206 4.85836C19.1487 7.1318 19.2425 9.41305 19.0784 11.7099C19.0706 11.7646 19.055 11.8271 19.0472 11.8896ZM9.61748 4.61617C8.0706 4.61617 6.52373 4.61617 4.96904 4.61617C4.1956 4.61617 3.71123 5.10836 3.75029 5.8193C3.78154 6.43649 4.2581 6.84274 4.98467 6.84274C6.45342 6.85055 7.92217 6.84274 9.39873 6.84274C10.9769 6.84274 12.5472 6.84274 14.1253 6.84274C14.5628 6.84274 14.9534 6.74117 15.219 6.35836C15.4612 5.99117 15.4925 5.60055 15.2894 5.21774C15.0706 4.79586 14.6956 4.61617 14.2269 4.61617C12.6878 4.61617 11.1487 4.61617 9.61748 4.61617ZM7.61748 11.4834C8.49248 11.4834 9.35967 11.4834 10.2347 11.4834C11.0081 11.4834 11.5003 11.038 11.5003 10.3584C11.5003 9.6943 11.0237 9.2568 10.2659 9.2568C8.5081 9.24899 6.75029 9.24899 5.00029 9.2568C4.81279 9.2568 4.60967 9.28805 4.42998 9.35055C3.93779 9.53805 3.67217 10.0537 3.76592 10.5849C3.85967 11.0849 4.3206 11.4677 4.89873 11.4755C5.79717 11.4912 6.71123 11.4755 7.61748 11.4834Z" fill="#3773A9"/>
<path d="M16 20C13.8203 20 12.0312 18.2032 12.0312 16.0157C12.0312 13.8203 13.8359 12.0235 16.0391 12.0313C18.2344 12.0391 20.0078 13.836 20 16.0547C19.9922 18.2422 18.2031 20.0078 16 20ZM15.2891 16.9766C15.2891 17.3047 15.2891 17.625 15.2891 17.9532C15.2891 17.9766 15.2891 18.0078 15.2969 18.0313C15.3359 18.4453 15.6406 18.75 16.0234 18.75C16.3906 18.7578 16.7344 18.4766 16.75 18.0782C16.7812 17.3828 16.7812 16.6797 16.75 15.9766C16.7344 15.5469 16.4062 15.2969 15.9922 15.3125C15.5859 15.3282 15.3125 15.6016 15.2891 16.0391C15.2734 16.3516 15.2891 16.6641 15.2891 16.9766ZM16.0156 14.7969C16.6328 14.7969 16.7656 14.6641 16.7578 14.0391C16.75 13.4532 16.6016 13.2969 16.0234 13.2969C15.4297 13.2891 15.2578 13.461 15.25 14.0469C15.2578 14.6563 15.3984 14.7969 16.0156 14.7969Z" fill="#3773A9"/>
</g>
<defs>
<clipPath id="clip0_833_10682">
<rect width="20" height="20" fill="white"/>
</clipPath>
</defs>
</svg>
